# xmcd
#
# Track frame offsets:
#	150
#	13941
#	25779
#	40905
#	52464
#	63774
#	76362
#	88671
#	100347
#	115311
#	126552
#	142464
#	156813
#	169578
#	183456
#	196578
#	208176
#	221166
#
# Disc length: 3130 seconds
#
# Revision: 1
# Processed by: cddbd v1.5.2PL0 Copyright (c) Steve Scherf et al.
# Submitted via: audiograbber 1.83.01
#
DISCID=100c3812
DTITLE=Travis Hammond - Vol 2
DYEAR=1900
DGENRE=Country
TTITLE0=Our Land
TTITLE1=Live For Today
TTITLE2=By My Side
TTITLE3=The Greatest Outlaw
TTITLE4=Goodbye To The Human Race
TTITLE5=Kasseter
TTITLE6=Remember The Yodellers #2
TTITLE7=The Old Convict Days
TTITLE8=Buddy Died Today
TTITLE9=Country Is #1
TTITLE10=The Cairns Karunda Line
TTITLE11=The Snowy Muntain Scheme
TTITLE12=Ever Been Around Australia
TTITLE13=The Riverboat Days
TTITLE14=Music Of The Past
TTITLE15=Borrowed Time
TTITLE16=Remember The Yodellers #1
TTITLE17=National Parks Of Australia
EXTD=
EXTT0=
EXTT1=
EXTT2=
EXTT3=
EXTT4=
EXTT5=
EXTT6=
EXTT7=
EXTT8=
EXTT9=
EXTT10=
EXTT11=
EXTT12=
EXTT13=
EXTT14=
EXTT15=
EXTT16=
EXTT17=
PLAYORDER=
